<svg width="1200" height="1200" viewBox="0 0 1200 1200" fill="none" xmlns="http://www.w3.org/2000/svg">
<path d="M494.332 100C544.537 100 580.37 112.647 601.832 137.941C617.545 157.103 625.401 181.056 625.401 209.799C625.401 220.147 624.443 231.069 622.527 242.566L600.107 370.761C592.442 414.068 573.664 448.751 543.771 474.812C513.877 500.872 475.17 513.903 427.648 513.903H260.362L333.37 100H494.332ZM458.116 189.679H420.749L379.934 424.224H434.546C452.558 424.224 466.547 419.433 476.511 409.852C486.859 399.888 493.949 383.792 497.781 361.563L514.452 267.286C515.985 258.854 516.752 251.189 516.752 244.291C516.752 207.883 497.206 189.679 458.116 189.679Z" fill="#119195"/>
<path d="M897.099 513.843H643.735L716.535 100.335H1028.41L967.08 146.281L1012.36 189.929H803.664L790.48 267.461H835.639H911.877L895.827 357.055H774.43L762.966 424.25H913.15L953.848 467.898L897.099 513.843Z" fill="#119195"/>
<path d="M306.668 1100C251.864 1100 213.923 1088.12 192.845 1064.36C178.282 1047.5 171 1023.93 171 993.65C171 980.62 172.341 966.631 175.024 951.685L198.594 819.466C215.839 722.505 278.116 674.025 385.425 674.025C429.881 674.025 463.606 683.606 486.601 702.768C509.595 721.547 521.093 747.416 521.093 780.375C521.093 795.705 518.793 811.034 514.194 826.364C509.979 841.311 505.763 852.425 501.547 859.706L495.224 871.204L461.307 826.364L393.473 871.204C406.12 856.64 412.443 835.945 412.443 809.118C412.443 794.938 408.802 783.824 401.521 775.776C394.239 767.345 383.508 763.129 369.328 763.129C330.621 763.129 307.626 784.591 300.345 827.514L280.224 943.637C278.308 953.601 277.35 963.374 277.35 972.955C277.35 998.249 292.488 1010.9 322.764 1010.9C359.172 1010.9 381.017 990.392 388.299 949.385L444.061 906.845L491.775 949.385L488.9 966.056C473.57 1055.35 412.826 1100 306.668 1100Z" fill="#F6AF55"/>
<path d="M757.052 674.025C849.414 674.025 895.595 711.774 895.595 787.273C895.595 799.92 894.253 813.526 891.57 828.089L871.45 943.062C862.252 996.333 842.324 1035.81 811.664 1061.48C781.005 1087.16 737.89 1100 682.32 1100C626.749 1100 588.042 1087.16 566.197 1061.48C551.251 1043.85 543.777 1019.52 543.777 988.476C543.777 974.679 545.31 959.541 548.376 943.062L568.496 828.089C586.509 725.38 649.361 674.025 757.052 674.025ZM697.841 1010.9C717.003 1010.9 732.333 1005.91 743.83 995.949C755.327 985.985 763.376 967.589 767.975 940.762L787.52 830.388C788.67 822.723 789.244 815.825 789.244 809.693C789.244 778.65 773.532 763.129 742.106 763.129C702.632 763.896 679.062 786.315 671.397 830.388L651.852 940.762C650.319 950.343 649.552 960.308 649.552 970.655C649.552 997.482 665.649 1010.9 697.841 1010.9Z" fill="#F6AF55"/>
<path d="M930.288 639.742L946.009 559.077H371.136H250.235L234.263 639.742H930.288Z" fill="url(#paint0_linear_428_8)"/>
<defs>
<linearGradient id="paint0_linear_428_8" x1="234.319" y1="640.626" x2="895.956" y2="640.626" gradientUnits="userSpaceOnUse">
<stop stop-color="#119195"/>
<stop offset="1" stop-color="#F3A754"/>
</linearGradient>
</defs>
</svg>
