<svg width="800" height="800" viewBox="0 0 800 800" fill="none" xmlns="http://www.w3.org/2000/svg">
<g clip-path="url(#clip0_1252_11)">
<g filter="url(#filter0_d_1252_11)">
<path d="M136.623 499.385C116.131 499.385 99.7377 492.316 87.4426 478.176C75.1475 463.832 69 442.521 69 414.242C69 385.963 75.1475 364.652 87.4426 350.308C99.9426 335.758 116.439 328.484 136.93 328.484C145.537 328.484 153.016 329.611 159.369 331.865C165.721 333.914 171.254 336.783 175.967 340.471C180.68 344.16 184.676 348.258 187.955 352.767H189.799C189.594 350.103 189.184 346.209 188.57 341.086C188.16 335.758 187.955 331.558 187.955 328.484V262.705H215.004V496.312H193.18L189.184 474.18H187.955C184.676 478.894 180.68 483.197 175.967 487.09C171.254 490.779 165.619 493.75 159.061 496.004C152.709 498.258 145.23 499.385 136.623 499.385ZM140.926 476.947C158.344 476.947 170.537 472.234 177.504 462.808C184.676 453.176 188.262 438.73 188.262 419.467V414.549C188.262 394.058 184.881 378.381 178.119 367.521C171.357 356.455 158.857 350.922 140.619 350.922C126.07 350.922 115.107 356.762 107.73 368.443C100.557 379.918 96.9713 395.39 96.9713 414.857C96.9713 434.529 100.557 449.795 107.73 460.656C115.107 471.517 126.172 476.947 140.926 476.947Z" fill="white"/>
<path d="M330.957 328.484C345.097 328.484 357.187 331.558 367.228 337.705C377.474 343.853 385.261 352.562 390.588 363.832C396.121 374.898 398.888 387.91 398.888 402.869V419.16H286.08C286.49 437.808 291.203 452.049 300.22 461.885C309.441 471.517 322.248 476.332 338.642 476.332C349.093 476.332 358.314 475.41 366.306 473.566C374.502 471.517 382.904 468.648 391.511 464.959V488.627C383.109 492.316 374.81 494.98 366.613 496.619C358.416 498.463 348.683 499.385 337.412 499.385C321.838 499.385 308.006 496.209 295.916 489.857C284.031 483.504 274.707 474.078 267.945 461.578C261.388 448.873 258.109 433.402 258.109 415.164C258.109 397.131 261.08 381.66 267.023 368.75C273.17 355.84 281.675 345.902 292.535 338.935C303.601 331.967 316.408 328.484 330.957 328.484ZM330.65 350.615C317.74 350.615 307.494 354.816 299.912 363.217C292.535 371.414 288.129 382.89 286.695 397.644H370.609C370.609 388.217 369.175 380.021 366.306 373.053C363.437 366.086 359.031 360.656 353.088 356.762C347.351 352.664 339.871 350.615 330.65 350.615Z" fill="white"/>
<path d="M506.916 499.385C492.367 499.385 479.355 496.414 467.879 490.471C456.609 484.529 447.695 475.308 441.138 462.808C434.785 450.308 431.609 434.324 431.609 414.857C431.609 394.57 434.99 378.074 441.752 365.369C448.515 352.664 457.633 343.34 469.109 337.398C480.789 331.455 494.006 328.484 508.761 328.484C517.162 328.484 525.256 329.406 533.043 331.25C540.83 332.89 547.183 334.939 552.101 337.398L543.801 359.836C538.883 357.992 533.146 356.25 526.588 354.611C520.031 352.971 513.883 352.152 508.146 352.152C497.08 352.152 487.961 354.508 480.789 359.221C473.617 363.935 468.289 370.902 464.806 380.123C461.322 389.344 459.58 400.82 459.58 414.549C459.58 427.664 461.322 438.832 464.806 448.053C468.289 457.275 473.515 464.242 480.482 468.955C487.449 473.668 496.158 476.025 506.609 476.025C515.625 476.025 523.515 475.103 530.277 473.258C537.244 471.414 543.597 469.16 549.334 466.496V490.471C543.801 493.34 537.654 495.492 530.892 496.926C524.334 498.566 516.342 499.385 506.916 499.385Z" fill="white"/>
<path d="M731.753 413.627C731.753 427.357 729.909 439.549 726.22 450.205C722.737 460.656 717.614 469.57 710.851 476.947C704.294 484.324 696.2 489.959 686.569 493.853C677.142 497.541 666.589 499.385 654.909 499.385C644.048 499.385 634.007 497.541 624.786 493.853C615.564 489.959 607.573 484.324 600.81 476.947C594.048 469.57 588.72 460.656 584.827 450.205C581.138 439.549 579.294 427.357 579.294 413.627C579.294 395.39 582.368 380.021 588.515 367.521C594.663 354.816 603.474 345.185 614.95 338.627C626.425 331.865 640.052 328.484 655.831 328.484C670.79 328.484 683.905 331.865 695.175 338.627C706.65 345.185 715.564 354.816 721.917 367.521C728.474 380.021 731.753 395.39 731.753 413.627ZM607.265 413.627C607.265 426.537 608.905 437.808 612.183 447.439C615.667 456.865 620.995 464.14 628.167 469.262C635.339 474.385 644.458 476.947 655.523 476.947C666.589 476.947 675.708 474.385 682.88 469.262C690.052 464.14 695.278 456.865 698.556 447.439C702.04 437.808 703.782 426.537 703.782 413.627C703.782 400.512 702.04 389.344 698.556 380.123C695.073 370.902 689.745 363.832 682.573 358.914C675.605 353.791 666.487 351.23 655.216 351.23C638.413 351.23 626.22 356.762 618.638 367.828C611.056 378.894 607.265 394.16 607.265 413.627Z" fill="white"/>
</g>
<g filter="url(#filter1_d_1252_11)">
<path d="M207.29 574.77C396.559 662.125 590.984 594.486 664.539 549.747C464.35 731.736 245.963 615.718 207.29 588.42C176.352 566.581 194.399 570.221 207.29 574.77Z" fill="#E03FBA"/>
<path d="M186.816 620.269C192.276 629.368 189.091 631.643 186.816 631.643C159.951 619.106 151.446 570.291 150.46 546.338C177.792 529.052 216.389 540.647 234.588 547.472C259.612 558.847 239.138 561.121 227.764 558.847C209.565 556.571 192.124 556.572 179.991 558.847C159.517 558.847 179.991 608.894 186.816 620.269Z" fill="#E03FBA"/>
</g>
<g filter="url(#filter2_d_1252_11)">
<path d="M607.704 225.23C418.435 137.875 224.009 205.514 150.455 250.253C350.643 68.2636 569.031 184.282 607.704 211.58C638.642 233.419 620.595 229.779 607.704 225.23Z" fill="#49E9F8"/>
<path d="M628.178 179.731C622.718 170.632 625.903 168.357 628.178 168.357C655.042 180.894 663.547 229.709 664.534 253.662C637.201 270.948 598.604 259.353 580.405 252.528C555.382 241.153 575.856 238.879 587.23 241.153C605.429 243.429 622.87 243.428 635.002 241.153C655.476 241.153 635.002 191.106 628.178 179.731Z" fill="#49E9F8"/>
</g>
</g>
<defs>
<filter id="filter0_d_1252_11" x="-6" y="187.705" width="812.753" height="386.68" filterUnits="userSpaceOnUse" color-interpolation-filters="sRGB">
<feFlood flood-opacity="0" result="BackgroundImageFix"/>
<feColorMatrix in="SourceAlpha" type="matrix" values="0 0 0 0 0 0 0 0 0 0 0 0 0 0 0 0 0 0 127 0" result="hardAlpha"/>
<feOffset/>
<feGaussianBlur stdDeviation="37.5"/>
<feComposite in2="hardAlpha" operator="out"/>
<feColorMatrix type="matrix" values="0 0 0 0 1 0 0 0 0 1 0 0 0 0 1 0 0 0 1 0"/>
<feBlend mode="normal" in2="BackgroundImageFix" result="effect1_dropShadow_1252_11"/>
<feBlend mode="normal" in="SourceGraphic" in2="effect1_dropShadow_1252_11" result="shape"/>
</filter>
<filter id="filter1_d_1252_11" x="100.46" y="487.295" width="614.079" height="212.705" filterUnits="userSpaceOnUse" color-interpolation-filters="sRGB">
<feFlood flood-opacity="0" result="BackgroundImageFix"/>
<feColorMatrix in="SourceAlpha" type="matrix" values="0 0 0 0 0 0 0 0 0 0 0 0 0 0 0 0 0 0 127 0" result="hardAlpha"/>
<feOffset/>
<feGaussianBlur stdDeviation="25"/>
<feComposite in2="hardAlpha" operator="out"/>
<feColorMatrix type="matrix" values="0 0 0 0 0.878431 0 0 0 0 0.247059 0 0 0 0 0.729412 0 0 0 1 0"/>
<feBlend mode="normal" in2="BackgroundImageFix" result="effect1_dropShadow_1252_11"/>
<feBlend mode="normal" in="SourceGraphic" in2="effect1_dropShadow_1252_11" result="shape"/>
</filter>
<filter id="filter2_d_1252_11" x="100.455" y="100" width="614.079" height="212.705" filterUnits="userSpaceOnUse" color-interpolation-filters="sRGB">
<feFlood flood-opacity="0" result="BackgroundImageFix"/>
<feColorMatrix in="SourceAlpha" type="matrix" values="0 0 0 0 0 0 0 0 0 0 0 0 0 0 0 0 0 0 127 0" result="hardAlpha"/>
<feOffset/>
<feGaussianBlur stdDeviation="25"/>
<feComposite in2="hardAlpha" operator="out"/>
<feColorMatrix type="matrix" values="0 0 0 0 0.286275 0 0 0 0 0.913725 0 0 0 0 0.972549 0 0 0 1 0"/>
<feBlend mode="normal" in2="BackgroundImageFix" result="effect1_dropShadow_1252_11"/>
<feBlend mode="normal" in="SourceGraphic" in2="effect1_dropShadow_1252_11" result="shape"/>
</filter>
<clipPath id="clip0_1252_11">
<rect width="800" height="800" fill="white"/>
</clipPath>
</defs>
</svg>
