<svg width="1263" height="500" viewBox="0 0 1263 500" fill="none" xmlns="http://www.w3.org/2000/svg">
<path d="M195.581 147.925C237.548 147.925 267.502 158.497 285.443 179.641C298.577 195.659 305.145 215.681 305.145 239.709C305.145 248.358 304.344 257.489 302.742 267.1L284.001 374.261C277.594 410.462 261.896 439.455 236.908 461.239C211.92 483.024 179.563 493.916 139.838 493.916H0L61.029 147.925H195.581ZM165.307 222.89H134.072L99.953 418.951H145.605C160.662 418.951 172.355 414.947 180.684 406.938C189.334 398.608 195.261 385.153 198.464 366.572L212.4 287.763C213.681 280.715 214.322 274.308 214.322 268.541C214.322 238.107 197.984 222.89 165.307 222.89Z" fill="#228989"/>
<path d="M532.269 493.873H320.476L381.33 148.212H612.29L561.019 186.619L598.873 223.105H454.164L443.143 287.917H480.892H544.622L531.205 362.81H429.726L420.143 418.98H545.686L579.707 455.466L532.269 493.873Z" fill="#228989"/>
<path d="M725.701 499.083C679.89 499.083 648.174 489.151 630.554 469.289C618.38 455.193 612.293 435.49 612.293 410.182C612.293 399.289 613.414 387.596 615.657 375.102L635.359 264.577C649.775 183.525 701.834 143 791.536 143C828.698 143 856.89 151.009 876.112 167.027C895.333 182.725 904.944 204.349 904.944 231.9C904.944 244.715 903.022 257.529 899.178 270.344C895.654 282.838 892.13 292.128 888.606 298.215L883.32 307.826L854.968 270.344L798.264 307.826C808.836 295.652 814.122 278.353 814.122 255.927C814.122 244.074 811.078 234.783 804.991 228.056C798.904 221.008 789.934 217.484 778.081 217.484C745.724 217.484 726.502 235.424 720.415 271.305L703.596 368.375C701.995 376.704 701.194 384.873 701.194 392.882C701.194 414.026 713.848 424.598 739.157 424.598C769.591 424.598 787.852 407.459 793.939 373.18L840.551 337.62L880.437 373.18L878.034 387.116C865.219 461.76 814.442 499.083 725.701 499.083Z" fill="#DFA559"/>
<path d="M1102.19 143C1179.4 143 1218 174.555 1218 237.667C1218 248.239 1216.88 259.612 1214.64 271.785L1197.82 367.894C1190.13 412.424 1173.47 445.422 1147.84 466.886C1122.21 488.35 1086.17 499.083 1039.72 499.083C993.266 499.083 960.909 488.35 942.648 466.886C930.154 452.15 923.907 431.806 923.907 405.857C923.907 394.324 925.189 381.67 927.751 367.894L944.57 271.785C959.628 185.928 1012.17 143 1102.19 143ZM1052.69 424.598C1068.71 424.598 1081.53 420.434 1091.14 412.104C1100.75 403.775 1107.47 388.397 1111.32 365.972L1127.66 273.707C1128.62 267.3 1129.1 261.534 1129.1 256.408C1129.1 230.459 1115.96 217.484 1089.69 217.484C1056.7 218.125 1037 236.866 1030.59 273.707L1014.25 365.972C1012.97 373.981 1012.33 382.31 1012.33 390.96C1012.33 413.385 1025.78 424.598 1052.69 424.598Z" fill="#DFA559"/>
<path d="M1102.19 143C1179.4 143 1218 174.555 1218 237.667C1218 248.239 1216.88 259.612 1214.64 271.785L1197.82 367.894C1190.13 412.424 1173.47 445.422 1147.84 466.886C1122.21 488.35 1086.17 499.083 1039.72 499.083C993.266 499.083 960.909 488.35 942.648 466.886C930.154 452.15 923.907 431.806 923.907 405.857C923.907 394.324 925.189 381.67 927.751 367.894L944.57 271.785C959.628 185.928 1012.17 143 1102.19 143ZM1052.69 424.598C1068.71 424.598 1081.53 420.434 1091.14 412.104C1100.75 403.775 1107.47 388.397 1111.32 365.972L1127.66 273.707C1128.62 267.3 1129.1 261.534 1129.1 256.408C1129.1 230.459 1115.96 217.484 1089.69 217.484C1056.7 218.125 1037 236.866 1030.59 273.707L1014.25 365.972C1012.97 373.981 1012.33 382.31 1012.33 390.96C1012.33 413.385 1025.78 424.598 1052.69 424.598Z" fill="#DFA559"/>
<path d="M1250 74L1263 0H88.5L75 74H1250Z" fill="url(#paint0_linear_458_49)"/>
<path d="M725.701 499.083C679.89 499.083 648.174 489.151 630.554 469.289C618.38 455.193 612.293 435.49 612.293 410.182C612.293 399.289 613.414 387.596 615.657 375.102L635.359 264.577C649.775 183.525 701.834 143 791.536 143C828.698 143 856.89 151.009 876.112 167.027C895.333 182.725 904.944 204.349 904.944 231.9C904.944 244.715 903.022 257.529 899.178 270.344C895.654 282.838 892.13 292.128 888.606 298.215L883.32 307.826L854.968 270.344L798.264 307.826C808.836 295.652 814.122 278.353 814.122 255.927C814.122 244.074 811.078 234.783 804.991 228.056C798.904 221.008 789.934 217.484 778.081 217.484C745.724 217.484 726.502 235.424 720.415 271.305L703.596 368.375C701.995 376.704 701.194 384.873 701.194 392.882C701.194 414.026 713.848 424.598 739.157 424.598C769.591 424.598 787.852 407.459 793.939 373.18L840.551 337.62L880.437 373.18L878.034 387.116C865.219 461.76 814.442 499.083 725.701 499.083Z" fill="#DFA559"/>
<path d="M1102.19 143C1179.4 143 1218 174.555 1218 237.667C1218 248.239 1216.88 259.612 1214.64 271.785L1197.82 367.894C1190.13 412.424 1173.47 445.422 1147.84 466.886C1122.21 488.35 1086.17 499.083 1039.72 499.083C993.266 499.083 960.909 488.35 942.648 466.886C930.154 452.15 923.907 431.806 923.907 405.857C923.907 394.324 925.189 381.67 927.751 367.894L944.57 271.785C959.628 185.928 1012.17 143 1102.19 143ZM1052.69 424.598C1068.71 424.598 1081.53 420.434 1091.14 412.104C1100.75 403.775 1107.47 388.397 1111.32 365.972L1127.66 273.707C1128.62 267.3 1129.1 261.534 1129.1 256.408C1129.1 230.459 1115.96 217.484 1089.69 217.484C1056.7 218.125 1037 236.866 1030.59 273.707L1014.25 365.972C1012.97 373.981 1012.33 382.31 1012.33 390.96C1012.33 413.385 1025.78 424.598 1052.69 424.598Z" fill="#DFA559"/>
<path d="M1102.19 143C1179.4 143 1218 174.555 1218 237.667C1218 248.239 1216.88 259.612 1214.64 271.785L1197.82 367.894C1190.13 412.424 1173.47 445.422 1147.84 466.886C1122.21 488.35 1086.17 499.083 1039.72 499.083C993.266 499.083 960.909 488.35 942.648 466.886C930.154 452.15 923.907 431.806 923.907 405.857C923.907 394.324 925.189 381.67 927.751 367.894L944.57 271.785C959.628 185.928 1012.17 143 1102.19 143ZM1052.69 424.598C1068.71 424.598 1081.53 420.434 1091.14 412.104C1100.75 403.775 1107.47 388.397 1111.32 365.972L1127.66 273.707C1128.62 267.3 1129.1 261.534 1129.1 256.408C1129.1 230.459 1115.96 217.484 1089.69 217.484C1056.7 218.125 1037 236.866 1030.59 273.707L1014.25 365.972C1012.97 373.981 1012.33 382.31 1012.33 390.96C1012.33 413.385 1025.78 424.598 1052.69 424.598Z" fill="#DFA559"/>
<path d="M597.137 61.2665H557.451L599.041 10.1231C599.591 9.47287 599.843 8.73165 599.795 7.90505C599.748 7.07433 599.397 6.38143 598.745 5.82974C598.194 5.3406 597.51 5.06831 596.699 5.00014H552.427C551.581 5.00014 550.851 5.30389 550.234 5.9024C549.615 6.50578 549.307 7.22939 549.307 8.07472C549.307 8.92117 549.599 9.64178 550.184 10.2437C550.77 10.8452 551.484 11.1459 552.329 11.1459H590.264L548.77 62.2905C548.187 62.9747 547.932 63.7377 548.015 64.5826C548.097 65.4302 548.463 66.1287 549.113 66.6819C549.599 67.1632 550.184 67.4111 550.867 67.4111H551.109H551.257H597.137C597.982 67.4111 598.698 67.1119 599.282 66.5077C599.869 65.9059 600.161 65.1868 600.161 64.3418C600.161 63.4916 599.869 62.7721 599.282 62.1676C598.698 61.5665 597.982 61.2665 597.137 61.2665Z" fill="#011B2A"/>
<path fill-rule="evenodd" clip-rule="evenodd" d="M644.015 28.2623C641.917 26.1818 639.459 24.5376 636.63 23.3349C633.801 22.1368 630.796 21.5323 627.609 21.5323C624.392 21.5323 621.374 22.1424 618.566 23.3619C615.753 24.5806 613.291 26.2391 611.179 28.3305C609.064 30.4283 607.398 32.8879 606.18 35.6954C604.962 38.5067 604.353 41.5247 604.353 44.742C604.353 47.9593 604.962 50.9818 606.18 53.8092C607.398 56.6373 609.064 59.1002 611.179 61.1947C613.291 63.2917 615.753 64.9531 618.566 66.1696C621.374 67.3906 624.392 68 627.609 68C629.46 68 631.184 67.8258 632.774 67.4876C634.37 67.1427 635.841 66.6738 637.189 66.0715C638.538 65.4734 639.767 64.7666 640.873 63.9516C641.974 63.1351 642.967 62.2441 643.846 61.2684C644.594 60.619 644.974 59.9077 644.992 59.1242C645.009 58.3426 644.788 57.6804 644.331 57.1264C644.007 56.5122 643.553 56.1024 642.967 55.9081C642.48 55.744 641.985 55.7039 641.48 55.7856C640.976 55.8669 640.447 56.1339 639.895 56.5912C638.53 58.2452 636.792 59.5744 634.68 60.5662C632.563 61.5531 630.207 62.0497 627.609 62.0497C625.496 62.0497 623.496 61.6782 621.613 60.9284C619.725 60.1793 618.052 59.1579 616.589 57.8575C615.127 56.5575 613.915 55.0294 612.958 53.2728C611.997 51.5204 611.387 49.6155 611.128 47.5656H647.941C648.818 47.5656 649.532 47.2832 650.086 46.715C650.639 46.148 650.915 45.4412 650.915 44.5948C650.884 41.4105 650.251 38.4115 649.013 35.598C647.776 32.789 646.115 30.3414 644.015 28.2623ZM610.981 42.3996C611.179 40.3191 611.745 38.3617 612.69 36.5254C613.631 34.6901 614.851 33.0946 616.345 31.7489C617.84 30.3991 619.554 29.3354 621.491 28.5541C623.423 27.7736 625.496 27.3829 627.707 27.3829C629.916 27.3829 631.997 27.7672 633.95 28.5316C635.898 29.2946 637.627 30.35 639.141 31.6961C640.651 33.0463 641.887 34.6403 642.846 36.4774C643.805 38.3134 644.398 40.2857 644.626 42.3996H610.981Z" fill="#011B2A"/>
<path d="M692.624 27.5541C691.014 25.62 689.08 24.1335 686.822 23.0949C684.561 22.0537 682.035 21.5323 679.241 21.5323C676.248 21.5323 673.445 22.2866 670.829 23.7971C668.212 25.3106 665.945 27.3039 664.026 29.7729V24.5548C664.026 23.7114 663.735 22.9859 663.15 22.3836C662.564 21.7848 661.85 21.4825 661.005 21.4825C660.157 21.4825 659.428 21.7848 658.812 22.3836C658.195 22.9859 657.885 23.7114 657.885 24.5548V64.2925C657.885 65.1704 658.183 65.9075 658.786 66.5098C659.387 67.1139 660.111 67.4131 660.954 67.4131C661.801 67.4131 662.524 67.1139 663.126 66.5098C663.727 65.9075 664.026 65.1704 664.026 64.2925V43.0345C664.093 40.8577 664.516 38.8255 665.294 36.9397C666.075 35.055 667.126 33.4224 668.438 32.04C669.756 30.6572 671.285 29.5759 673.023 28.7976C674.763 28.0163 676.622 27.6249 678.609 27.6249C682.669 27.6249 685.829 29.0163 688.089 31.7939C690.347 34.5775 691.51 38.5678 691.578 43.7652V44.0098V64.3899C691.578 65.2682 691.868 65.9978 692.453 66.5865C693.039 67.1652 693.753 67.46 694.597 67.46C695.476 67.46 696.208 67.1652 696.792 66.5865C697.376 65.9978 697.67 65.2682 697.67 64.3899V44.0098V43.7652C697.637 40.3843 697.189 37.3221 696.328 34.5775C695.468 31.8276 694.232 29.489 692.624 27.5541Z" fill="#011B2A"/>
<path fill-rule="evenodd" clip-rule="evenodd" d="M746.746 28.2322C744.65 26.1401 742.188 24.4891 739.359 23.2872C736.53 22.0823 733.509 21.4804 730.29 21.4804C727.105 21.4804 724.097 22.0823 721.27 23.2872C718.444 24.4891 715.971 26.1401 713.861 28.2322C712.436 29.6476 711.221 31.2285 710.2 32.9739V6.56374C710.2 6.10456 710.048 5.73078 709.739 5.43901C709.429 5.14837 709.048 5.00006 708.594 5.00006C708.172 5.00006 707.803 5.14837 707.496 5.43901C707.186 5.73078 707.032 6.10456 707.032 6.56374V65.85C707.032 66.3077 707.186 66.6815 707.496 66.9736C707.803 67.2676 708.172 67.4107 708.594 67.4107C709.048 67.4107 709.429 67.2676 709.739 66.9736C710.048 66.6815 710.2 66.3077 710.2 65.85V56.3738C711.221 58.1132 712.436 59.6971 713.861 61.1226C715.971 63.2354 718.444 64.8994 721.27 66.1182C724.097 67.3347 727.105 67.9463 730.29 67.9463C733.509 67.9463 736.53 67.3347 739.359 66.1182C742.188 64.8994 744.65 63.2354 746.746 61.1226C748.842 59.0087 750.494 56.5465 751.696 53.7352C752.895 50.9224 753.5 47.9078 753.5 44.692C753.5 41.4714 752.895 38.4485 751.696 35.6215C750.494 32.7933 748.842 30.3304 746.746 28.2322ZM748.842 52.4427C747.818 54.8772 746.405 57.0102 744.6 58.8286C742.795 60.6518 740.668 62.0986 738.212 63.1687C735.758 64.2391 733.12 64.7788 730.29 64.7788C727.461 64.7788 724.829 64.2391 722.392 63.1687C719.955 62.0986 717.833 60.6518 716.029 58.8286C714.224 57.0102 712.803 54.8772 711.762 52.4427C710.722 50.0052 710.2 47.4194 710.2 44.692C710.2 41.8961 710.722 39.2796 711.762 36.8406C712.803 34.4027 714.224 32.2799 716.029 30.4772C717.833 28.6727 719.962 27.2506 722.415 26.2097C724.869 25.17 727.494 24.6494 730.29 24.6494C733.12 24.6494 735.752 25.17 738.189 26.2097C740.628 27.2506 742.749 28.6727 744.551 30.4772C746.355 32.2799 747.78 34.4027 748.817 36.8406C749.856 39.2796 750.378 41.8961 750.378 44.692C750.378 47.4194 749.868 50.0052 748.842 52.4427Z" fill="#011B2A"/>
<path d="M762.036 8.66061C761.381 8.66061 760.841 8.88234 760.401 9.32055C759.962 9.761 759.742 10.3213 759.742 11.0037C759.742 11.6202 759.962 12.1573 760.401 12.6131C760.841 13.0689 761.381 13.291 762.036 13.291C762.716 13.291 763.285 13.0689 763.74 12.6131C764.195 12.1573 764.422 11.6202 764.422 11.0037C764.422 10.3213 764.195 9.761 763.74 9.32055C763.285 8.88234 762.716 8.66061 762.036 8.66061Z" fill="#011B2A"/>
<path d="M762.034 21.4815C761.576 21.4815 761.204 21.6433 760.91 21.9695C760.617 22.295 760.471 22.6849 760.471 23.1422V65.7559C760.471 66.2095 760.626 66.5956 760.936 66.9233C761.243 67.2511 761.624 67.4121 762.08 67.4121C762.503 67.4121 762.868 67.2511 763.176 66.9233C763.486 66.5956 763.642 66.2095 763.642 65.7559V23.1422C763.642 22.6849 763.486 22.295 763.176 21.9695C762.868 21.6433 762.485 21.4815 762.034 21.4815Z" fill="#011B2A"/>
<path d="M790.236 21.9462C789.927 21.6391 789.544 21.481 789.089 21.481H780.751V6.5647C780.751 6.10514 780.598 5.73135 780.287 5.43959C779.98 5.14895 779.598 5.00063 779.143 5.00063C778.719 5.00063 778.355 5.14895 778.046 5.43959C777.737 5.73135 777.581 6.10514 777.581 6.5647V21.481H770.756C770.269 21.481 769.87 21.6391 769.563 21.9462C769.252 22.2541 769.097 22.6368 769.097 23.0934C769.097 23.5447 769.252 23.92 769.563 24.2133C769.87 24.5005 770.269 24.65 770.756 24.65H777.581V65.8506C777.581 66.3082 777.737 66.682 778.046 66.9742C778.355 67.2682 778.719 67.4116 779.143 67.4116C779.598 67.4116 779.98 67.2682 780.287 66.9742C780.598 66.682 780.751 66.3082 780.751 65.8506V24.65H789.089C789.544 24.65 789.927 24.5005 790.236 24.2133C790.544 23.92 790.698 23.5447 790.698 23.0934C790.698 22.6368 790.544 22.2541 790.236 21.9462Z" fill="#011B2A"/>
<defs>
<linearGradient id="paint0_linear_458_49" x1="338" y1="36" x2="924.5" y2="36" gradientUnits="userSpaceOnUse">
<stop stop-color="#228989"/>
<stop offset="1" stop-color="#DFA559"/>
</linearGradient>
</defs>
</svg>
